<svg id="Layer_1" data-name="Layer 1" xmlns="http://www.w3.org/2000/svg" xmlns:xlink="http://www.w3.org/1999/xlink" viewBox="0 0 48 44.65"><defs><style>.cls-1{fill:#d980b5;}.cls-2{fill:#cb61a1;}.cls-10,.cls-3{fill:#b74a84;}.cls-4{fill:#8d3761;}.cls-5,.cls-6{fill:#010101;isolation:isolate;}.cls-5{opacity:0.1;}.cls-6{opacity:0.2;}.cls-7{fill:url(#linear-gradient);}.cls-8{fill:#221f1f;}.cls-10,.cls-8,.cls-9{fill-rule:evenodd;}.cls-9{fill:#fff;}</style><linearGradient id="linear-gradient" x1="4.27" y1="-1805.99" x2="20.29" y2="-1778.23" gradientTransform="translate(0 1816.11)" gradientUnits="userSpaceOnUse"><stop offset="0" stop-color="#be5790"/><stop offset="0.5" stop-color="#b84c86"/><stop offset="1" stop-color="#a73f70"/></linearGradient></defs><title>Untitled-4</title><g id="Livello_1" data-name="Livello 1"><path class="cls-1" d="M46,1.67H13.21a2.05,2.05,0,0,0-2.05,2.05h0v9.12l19,5.58L48,12.84V3.72A2.05,2.05,0,0,0,46,1.67Z" transform="translate(0 -1.67)"/><path class="cls-2" d="M48,12.84H11.16V24l19,3.35L48,24Z" transform="translate(0 -1.67)"/><path class="cls-3" d="M11.16,24V35.16L29,37.4l19-2.24V24Z" transform="translate(0 -1.67)"/><path class="cls-4" d="M13.21,46.33H46a2.05,2.05,0,0,0,2-2h0V35.16H11.16v9.12A2.05,2.05,0,0,0,13.21,46.33Z" transform="translate(0 -1.67)"/><path class="cls-5" d="M24.74,10.6H11.16V38.51H24.74a2.05,2.05,0,0,0,2.05-2V12.65A2.06,2.06,0,0,0,24.74,10.6Z" transform="translate(0 -1.67)"/><path class="cls-6" d="M23.63,11.72H11.16V39.63H23.63a2.05,2.05,0,0,0,2-2.05V13.77A2,2,0,0,0,23.63,11.72Z" transform="translate(0 -1.67)"/><path class="cls-6" d="M23.63,11.72H11.16V37.4H23.63a2.05,2.05,0,0,0,2-2V13.77A2,2,0,0,0,23.63,11.72Z" transform="translate(0 -1.67)"/><path class="cls-6" d="M22.51,11.72H11.16V37.4H22.51a2.07,2.07,0,0,0,2-2V13.77A2.06,2.06,0,0,0,22.51,11.72Z" transform="translate(0 -1.67)"/><path class="cls-7" d="M2.05,11.72H22.51a2.05,2.05,0,0,1,2,2V34.23a2.05,2.05,0,0,1-2,2.05H2.05a2.05,2.05,0,0,1-2-2.05V13.77A2.05,2.05,0,0,1,2.05,11.72Z" transform="translate(0 -1.67)"/><path class="cls-8" d="M7,21.56" transform="translate(0 -1.67)"/><path id="path0" class="cls-9" d="M9,16.09a.59.59,0,0,0-.24.31,8.43,8.43,0,0,0-.3,1.36c0,.12-.07.32-.1.45s-.08.44-.16.83c0,.08,0,.2-.05.25L8,20.06c-.08.51-.12.72-.17,1,0,.11,0,.28-.06.38a4.27,4.27,0,0,0-.08.64,0,0,0,0,1,0,0h.56l.54,0a.12.12,0,0,0,.08,0,.14.14,0,0,0,0-.06.13.13,0,0,0,0-.06c0-.06,0-.11,0-.17a1.82,1.82,0,0,1,3.5.12.59.59,0,0,0,0,.2s2.11,0,2.14,0a.37.37,0,0,0,.05-.15,1.8,1.8,0,0,1,3.53,0c0,.19,0,.19.47.18h.4s0,0,0,0,0-.11,0-.21,0-.26-.06-.36c-.05-.25-.09-.5-.11-.65s0-.17,0-.23-.08-.45-.16-.88a27.45,27.45,0,0,0-.64-3.19c-.11-.42-.18-.52-.37-.52a1,1,0,0,0-.57.43c-.1.12-.9,1.48-1.13,1.9s-.17.28-.57.22a10.43,10.43,0,0,0-3.78,0c-.38.07-.32.1-.64-.39C9.82,16.4,9.45,16,9,16.09m1.49,5.12a.69.69,0,0,1,.41.69.73.73,0,0,1-1.36.25.71.71,0,0,1,.94-.94m5.81,0a.73.73,0,0,1,.39.87.74.74,0,1,1-.39-.87M7.67,22.31a1.13,1.13,0,0,1,0,.25c0,.22-.15,1.07-.24,1.73,0,.13,0,.29-.05.36s0,.21,0,.31,0,.28,0,.4c-.06.43-.14,1.13-.18,1.47s0,.37-.12,1c0,.31-.08.68-.12,1.06l0,.44c0,.08,0,.26,0,.4a2,2,0,0,1,0,.27,5.22,5.22,0,0,1-.91-.16A1.26,1.26,0,0,1,4.88,28a2.44,2.44,0,0,1,.71-.64c.42-.29.48-.35.49-.52s-.44-.47-1-.3a2.41,2.41,0,0,0,.16,4.65,5.44,5.44,0,0,0,1.2.18,4.36,4.36,0,0,1,.73.12,30.43,30.43,0,0,0,3.71.2c.74,0,5,0,5.61,0l1,0c.77,0,2-.11,2.3-.15.49-.06.53-.17.43-1.07,0-.15,0-.4-.06-.56s0-.42-.06-.57-.05-.4-.06-.54c-.06-.54-.13-1.13-.18-1.53-.08-.6-.1-.76-.21-1.5,0-.22-.07-.47-.08-.54s0-.17,0-.24-.07-.4-.12-.75-.13-.77-.15-.93-.07-.38-.08-.48,0-.24-.06-.33,0-.16-.05-.14l-.42,0c-.43,0-.42,0-.44.14a1.8,1.8,0,0,1-3.54,0c0-.19,0-.18-1.12-.18s-1.08,0-1.11.18A1.81,1.81,0,0,1,9,22.52c0-.23,0-.22-.64-.23-.31,0-.64,0-.64,0m6,1.39a.47.47,0,0,0,.47.17c.24,0,.27,0,.2.09s-.4.14-.68,0c-.13-.07-.15-.07-.26,0-.27.18-.61.18-.71,0s0-.1.11-.08c.3,0,.4,0,.56-.16s.18-.14.31,0" transform="translate(0 -1.67)"/><path id="path1" class="cls-9" d="M10.5,20.31A2,2,0,0,0,8.94,22c0,.11-.36.18-.65.18a5.44,5.44,0,0,0-.56,0,3.56,3.56,0,0,0,0-.47,4.64,4.64,0,0,0-.1.63v.06s0,0,0,0a3,3,0,0,1,.61-.1c.13,0,.6,0,.64.22a1.8,1.8,0,0,0,3.52-.05c0-.19-.05-.17,1.12-.17s1.09,0,1.11.17a1.8,1.8,0,0,0,3.55,0c0-.14,0-.06.45-.06s.46,0,.41-.24h-.4c-.46,0-.44,0-.47-.18a1.8,1.8,0,0,0-3.53,0l-.05.15s-2.11,0-2.14,0a.8.8,0,0,1-.06-.2c0-1-1-1.48-1.94-1.4m.6.2a1.53,1.53,0,0,1,.73,2.6,1.64,1.64,0,0,1-2.73-.75,1.6,1.6,0,0,1,2-1.85m5.77,0a1.53,1.53,0,0,1,.71,2.63,1.63,1.63,0,0,1-2.74-1.13,1.6,1.6,0,0,1,2-1.5m-3.51,3c-.16.17-.26.2-.56.15-.11,0-.14,0-.1.08s.43.16.7,0c.11-.08.13-.08.26,0,.28.16.56.17.68,0s.05-.1-.2-.09a.47.47,0,0,1-.47-.17c-.13-.13-.17-.13-.31,0" transform="translate(0 -1.67)"/><path class="cls-10" d="M13.35,24.28c-.31.36-.49.41-1.06.31-.19,0-.26,0-.19.17.18.34.81.33,1.32,0,.21-.15.26-.14.49,0,.52.33,1.05.36,1.27.05s.09-.22-.36-.19a.84.84,0,0,1-.89-.34c-.25-.27-.33-.27-.58,0" transform="translate(0 -1.67)"/></g></svg>