<svg id="Layer_1" data-name="Layer 1" xmlns="http://www.w3.org/2000/svg" xmlns:xlink="http://www.w3.org/1999/xlink" viewBox="0 0 1585.65 1745.32"><defs><style>.cls-1{fill:#d980b5;}.cls-2{fill:#cb61a1;}.cls-3{fill:#b74a84;}.cls-4{fill:#8d3761;}.cls-5,.cls-6{fill:#010101;isolation:isolate;}.cls-5{opacity:0.1;}.cls-6{opacity:0.2;}.cls-7{fill:url(#linear-gradient);}.cls-8{fill:#221f1f;}.cls-10,.cls-8,.cls-9{fill-rule:evenodd;}.cls-9{fill:#fff;}.cls-10{fill:url(#linear-gradient-2);}</style><linearGradient id="linear-gradient" x1="424.2" y1="-1320.82" x2="974.71" y2="-367.37" gradientTransform="translate(-158.46 1808.34)" gradientUnits="userSpaceOnUse"><stop offset="0" stop-color="#be5790"/><stop offset="0.5" stop-color="#b84c86"/><stop offset="1" stop-color="#a73f70"/></linearGradient><linearGradient id="linear-gradient-2" x1="539.79" y1="990.01" x2="656.31" y2="990.01" gradientTransform="matrix(1, 0, 0, 1, 0, 0)" xlink:href="#linear-gradient"/></defs><title>clash-t-logo-windows-taskbar-48px-with-cat-ear-over-block-revised-all-rounded-large-final</title><path class="cls-1" d="M1720.77,254.54v-3.27A9,9,0,0,1,1720.77,254.54Z" transform="translate(-135.27 -2.16)"/><polygon class="cls-1" points="1230.11 181.38 1215.54 181.38 1218.09 179.56 1230.11 181.38"/><polygon class="cls-1" points="930.79 747.97 1056.78 747.97 995.61 768.36 930.79 747.97"/><path class="cls-1" d="M1353.36,181.72,1627.19,10.21c36.41-14.2,67-7.64,77.92,28.41a1116.67,1116.67,0,0,1,15.29,213v323L1445.49,666,1190.6,750.12H1066.06L791.87,664.19,504.21,574.61V254.54a1145,1145,0,0,1,15.3-214.83c10.92-36.42,40-47.34,77.92-28.4L874.17,184.63h0l113.61-16.38c12,0,70.27-6.56,129.26-6.92s119.07,4,130.72,5.46l105.6,14.93" transform="translate(-135.27 -2.16)"/><polygon class="cls-1" points="1230.11 181.38 1215.54 181.38 1218.09 179.56 1230.11 181.38"/><path class="cls-2" d="M1720.77,572.43H504.21V963.87l626.67,117.25,589.89-117.25Z" transform="translate(-135.27 -2.16)"/><path class="cls-3" d="M504.21,963.87v391.07l589.89,78.29,626.67-78.29V963.87Z" transform="translate(-135.27 -2.16)"/><path class="cls-4" d="M571.58,1747.47H1653a69.55,69.55,0,0,0,67.79-71.26l-.06-1.56h0V1354.94H504.21v319.71a69.55,69.55,0,0,0,66.16,72.78Z" transform="translate(-135.27 -2.16)"/><path class="cls-5" d="M952.82,494.14H504.21v978.05H952.82a69.55,69.55,0,0,0,67.41-71.62c0-.4,0-.8-.05-1.2V565.87A70.27,70.27,0,0,0,952.82,494.14Z" transform="translate(-135.27 -2.16)"/><path class="cls-6" d="M915.68,533.47H504.21v977.68H915.68a69.53,69.53,0,0,0,67.78-71.26c0-.52,0-1-.05-1.56V605.2a69.55,69.55,0,0,0-67.31-71.72Z" transform="translate(-135.27 -2.16)"/><path class="cls-6" d="M915.68,533.47H504.21v899.76H915.68a70.27,70.27,0,0,0,67.73-72.73V605.2a69.55,69.55,0,0,0-67.31-71.72Z" transform="translate(-135.27 -2.16)"/><path class="cls-6" d="M878.9,533.47H504.21v899.76H878.9a70.64,70.64,0,0,0,67.73-72.83V605.2A70.27,70.27,0,0,0,878.9,533.47Z" transform="translate(-135.27 -2.16)"/><path class="cls-7" d="M203.08,533.47H878.9a69.55,69.55,0,0,1,67.79,71.27l-.06,1.55v715.88a69.54,69.54,0,0,1-66.17,72.77l-1.56.06H203.08a69.56,69.56,0,0,1-67.79-71.27c0-.52,0-1,.06-1.56v-717a69.55,69.55,0,0,1,67.31-71.72Z" transform="translate(-135.27 -2.16)"/><path class="cls-8" d="M366.57,878.3" transform="translate(-135.27 -2.16)"/><path class="cls-8" d="M347.14,885.05Z" transform="translate(-135.27 -2.16)"/><path class="cls-9" d="M616.45,979.63c-4.43,5.82-14.66,5.32-24.86-1.13-4.59-2.88-5.4-2.88-9.53,0-10,6.8-22.12,7.1-25.73.45-1.41-2.66-.08-3.75,3.68-3.13,11.1,1.9,14.63.9,20.77-6,4.84-5.45,6.34-5.49,11.19-.32l0-.07c5.94,6.27,8,7.09,17.35,6.49C618.15,975.35,619.26,975.9,616.45,979.63Z" transform="translate(-135.27 -2.16)"/><path class="cls-9" d="M380.4,901.76c-.44,0-.63,0-.56-.07a.47.47,0,0,0,.2-.1.61.61,0,0,0,.1-.82c-.24-.42.1-4.34.85-10.34,0-.12,0-.25.06-.38.63-3.81,1.21-6.68,1.49-6.68S380.73,900.76,380.4,901.76Z" transform="translate(-135.27 -2.16)"/><path id="path1" class="cls-9" d="M382.93,877c-.28,0-.87,2.87-1.49,6.69a2.5,2.5,0,0,0-.06.38c-.75,6-1.09,9.92-.85,10.33a.61.61,0,0,1-.1.82.37.37,0,0,1-.21.1c-.06,0,.13.05.56.07C381.12,894.36,383.3,877,382.93,877Z" transform="translate(-135.27 -2.16)"/><path id="path0" class="cls-9" d="M694.94,858.91h-.09c-17.6-9.18-40.57,7.32-38.7,27.82,2.7,29.63,42.47,34.37,52.78,6.29C713.48,880.81,707.07,865.2,694.94,858.91Zm-212.48.42h0c-22.57-10.59-45.64,13.94-34.7,36.87,11.69,24.51,48.1,17.34,50-9.87C498.56,874.74,492.43,863.88,482.46,859.33Z" transform="translate(-135.27 -2.16)"/><path class="cls-9" d="M839.43,1219.76c-.63-5.83-1.65-15.72-2.29-22s-1.65-16.32-2.29-22.36-1.61-15.61-2.18-21.23c-2.14-21.24-4.68-44.4-6.54-60.28-2.8-23.4-3.65-29.9-7.74-58.76-1.27-9-2.62-18.52-3-21.23s-1-7-1.4-9.48-2.44-15.88-4.45-29.58S805,944.55,804,938.09s-2.3-14.81-2.88-18.57-1.48-9.64-2-13c-.47-3.15-.8-4.77-1.19-5.43a33.45,33.45,0,0,0-.71-5.52c-.05-.21-6.61-.28-14.49-.16-16.73.25-16,.58-17.18-7.1v-.1c1.22,7.69.43,7.36,17.19,7.1,7.92-.12,14.51,0,14.66.16s.12-.09,0-.68-.76-4.23-1.35-8.14-1.56-10.22-2.2-14.06c-1.55-9.78-3.11-19.8-4-25.61-.41-2.66-1.09-6.81-1.5-9.08s-2.9-17.82-5.56-34.48C770.42,725.58,769.93,723,759.16,678c-4-16.78-6.47-20.53-13.5-20.43-5.27,0-14.25,7.2-20.92,16.68-3.51,5-32.82,58.2-41.3,75-5.45,10.8-6.08,11-20.87,8.44-49.34-8.78-94-8.77-138.09,0-14,2.78-11.92,4.11-23.71-15.4-43.53-72.14-57-87.75-72.51-84.24v0c-2.72.6-6.53,5.8-8.9,12.1-2.53,6.81-4.4,15.72-11.19,53.36-.84,4.8-2.38,12.82-3.32,17.82-1.61,8.41-3.21,17.23-5.93,32.6-.59,3.33-1.4,7.78-1.81,9.86-.82,4.12-.74,3.8-5.06,30.34-3.25,19.89-4.58,28.41-6.34,40.55-.64,4.39-1.65,11-2.2,14.74-.85,5.51-1.54,10.54-2.06,14.64.63-3.82,1.21-6.69,1.5-6.69s-1.81,17.39-2.15,18.39c-.44,0-.63,0-.56-.07a.32.32,0,0,0,.2-.1.6.6,0,0,0,.1-.82c-.23-.41.1-4.34.86-10.33-1.1,6.69-2.34,15.95-2.39,17.81a.62.62,0,0,0-.36.53l.17-.31c-.2,3.28-.57,6.53-1.07,9.77-1.26,8.66-5.6,42.15-8.88,68.32-.59,4.8-1.43,11.12-1.87,14s-1.14,8.37-1.5,12.14-1.26,10.9-1.88,15.88c-2,16.73-5.13,44.46-6.54,57.61-1,9.2-1.59,14.74-4.44,40.19-1.35,12.1-2.9,26.7-4.44,41.73l-1.76,17c-.32,3.11-1,10.3-1.51,15.87a85.84,85.84,0,0,1-1.37,10.75c-.62.74-22.8-3.48-33.12-6.3-35.58-9.77-51.33-44.73-33.81-75.12,4.41-7.67,10.81-13.89,26-25.27s17.4-13.9,17.86-20.63c.82-12.47-16.25-18.26-34.85-11.85-85.79,29.49-81.69,155,6,182.93,12.37,4,26.11,6.31,44,7.45,8.55.51,13.68,1.4,26.52,4.54,12.19,3,33.14,4.22,135.66,8,27.09,1,182.33,1,205.43,0l36.1-1.52c28.4-1.14,72-4.28,84.16-6C841.67,1259.4,843.16,1255.33,839.43,1219.76ZM531.73,941.83c-33.12,34.27-89.18,17.7-100.12-29.48C421.3,868.11,461.76,828,505,839.43l0,.05C549.1,851.1,564.08,908.49,531.73,941.83Zm210.14,1.1c-38.17,37.37-100.25,9.87-100.2-44.38,0-40.38,36.23-69.19,74.34-59.13h0C760.88,851.28,775.57,910,741.87,942.93Z" transform="translate(-135.27 -2.16)"/><path class="cls-10" d="M586.67,979.86c-11.51,14.21-18.16,16.34-38.95,12.47-7.05-1.31-9.57,1-6.87,6.43,6.76,13.61,29.6,13.17,48.31-1,7.76-5.84,9.34-5.84,17.88.08,19.17,13.32,38.37,14.29,46.67,2.33,5.32-7.61,3.21-8.82-13.32-7.7-17.44,1.14-21.39-.42-32.56-13.31-9.16-10.66-12-10.55-21.1.67Z" transform="translate(-135.27 -2.16)"/></svg>