<?xml version="1.0" encoding="utf-8"?>
<!-- Generator: Adobe Illustrator 24.0.2, SVG Export Plug-In . SVG Version: 6.00 Build 0)  -->
<svg version="1.1" id="Layer_1" xmlns="http://www.w3.org/2000/svg" xmlns:xlink="http://www.w3.org/1999/xlink" x="0px" y="0px"
	 viewBox="0 0 1881.3 1750" style="enable-background:new 0 0 1881.3 1750;" xml:space="preserve">
<style type="text/css">
	.st0{fill:#E67EC7;}
	.st1{fill:#CB61A1;}
	.st2{fill:#B64983;}
	.st3{fill:#8C3660;}
	.st4{opacity:0.1;enable-background:new    ;}
	.st5{opacity:0.2;enable-background:new    ;}
	.st6{fill:url(#SVGID_1_);}
	.st7{fill-rule:evenodd;clip-rule:evenodd;fill:#FFFFFF;}
	.st8{fill-rule:evenodd;clip-rule:evenodd;fill:#221F1F;}
	.st9{fill-rule:evenodd;clip-rule:evenodd;fill:#B64983;}
</style>
<title>clash-t-logo-original-with-fluent-ui-bg</title>
<g>
	<g id="Livello_1">
		<path class="st0" d="M1801.1,0H517.7c-44.3,0-80.2,35.9-80.2,80.2l0,0v357.3l743.8,218.8l700-218.8V80.2
			C1881.3,35.9,1845.3,0,1801.1,0z"/>
		<path class="st1" d="M1881.3,437.5H437.5V875l743.8,131.3l700-131.3V437.5z"/>
		<path class="st2" d="M437.5,875v437.5l700,87.5l743.8-87.5V875H437.5z"/>
		<path class="st3" d="M517.7,1750h1283.4c44.3,0,80.2-35.9,80.2-80.2l0,0v-357.3H437.5v357.3C437.5,1714.1,473.4,1750,517.7,1750z"
			/>
		<path class="st4" d="M969.8,350H437.5v1093.8h532.3c44.2-0.1,80.1-36,80.2-80.2V430.2C1049.9,386,1014,350.1,969.8,350z"/>
		<path class="st5" d="M926.1,393.8H437.5v1093.8h488.6c44.2-0.1,80.1-36,80.2-80.2V473.9C1006.1,429.7,970.3,393.9,926.1,393.8z"/>
		<path class="st5" d="M926.1,393.8H437.5V1400h488.6c44.2-0.1,80.1-36,80.2-80.2V473.9C1006.1,429.7,970.3,393.9,926.1,393.8z"/>
		<path class="st5" d="M882.3,393.8H437.5V1400h444.8c44.2-0.1,80.1-36,80.2-80.2V473.9C962.4,429.7,926.5,393.9,882.3,393.8z"/>
		
			<linearGradient id="SVGID_1_" gradientUnits="userSpaceOnUse" x1="167.2078" y1="2326.9136" x2="795.2922" y2="1239.0859" gradientTransform="matrix(1 0 0 -1 0 2657.9998)">
			<stop  offset="0" style="stop-color:#BD568F"/>
			<stop  offset="0.5" style="stop-color:#B74B85"/>
			<stop  offset="1" style="stop-color:#A63E6F"/>
		</linearGradient>
		<path class="st6" d="M80.2,393.8h802.1c44.3,0,80.2,35.9,80.2,80.2v802.1c0,44.3-35.9,80.2-80.2,80.2H80.2
			c-44.3,0-80.2-35.9-80.2-80.2V473.9C0,429.7,35.9,393.8,80.2,393.8z"/>
		
			<image style="overflow:visible;opacity:0.75;enable-background:new    ;" width="778" height="838" xlink:href="249024E5.png"  transform="matrix(1 0 0 1 76 504)">
		</image>
		<path id="path0" class="st7" d="M331.9,512.8c-3.3,0.7-7.9,6.5-10.8,13.6c-3.1,7.6-5.3,17.7-13.5,60.1c-1,5.4-2.9,14.4-4,20.1
			c-2,9.5-3.9,19.4-7.2,36.7c-0.7,3.8-1.7,8.8-2.2,11.1c-1,4.6-0.9,4.3-6.1,34.2c-3.9,22.4-5.5,32-7.7,45.7
			c-0.8,4.9-2,12.4-2.7,16.7c-2.5,15.6-4.1,27.8-3.6,28.5c0.2,0.3,0.2,0.7-0.1,0.9c-0.1,0.1-0.2,0.1-0.3,0.1
			c-0.5,0.2,10.8,0.2,25.1,0c13.3-0.1,20.2-0.1,23.9-0.8c2-0.3,3-0.9,3.7-1.8c0.5-0.8,0.9-1.8,1-2.8c0.1-0.8,0.3-1.7,0.5-2.7
			c0.4-2.5,1-4.9,1.6-7.2c20.2-76.6,139-75.6,154.8,5.3c0.8,4.2,1.9,8.1,2.4,8.7c1.4,1.7,93.5,1.5,95-0.1c0.6-0.7,1.4-3.6,1.9-6.6
			c14-84.5,142.4-84.8,156.6-0.4c1.5,8.7,0.5,8.3,20.8,8c9.6-0.1,17.6-0.1,17.7,0.2s0.2-0.1,0-0.8s-0.9-4.8-1.6-9.2
			s-1.9-11.5-2.7-15.9c-1.9-11-3.8-22.3-4.8-28.8c-0.5-3-1.3-7.7-1.8-10.3s-3.5-20.1-6.7-38.8c-15-87.6-15.6-90.5-28.6-141.3
			c-4.9-18.9-7.8-23.1-16.3-23c-6.4,0-17.2,8.1-25.3,18.8c-4.3,5.6-39.7,65.5-50,84.4c-6.6,12.2-7.4,12.5-25.3,9.5
			c-59.7-9.9-113.8-9.9-167.1,0c-16.9,3.2-14.4,4.7-28.7-17.3C366.9,526.4,350.6,508.8,331.9,512.8 M397.4,739.5
			c12.1,5.1,19.5,17.3,18.5,30.4c-2.3,30.6-46.3,38.7-60.5,11.1C342.1,755.2,370.1,727.6,397.4,739.5 M654.6,739
			c14.7,7.1,22.5,24.7,17,38.4c-12.5,31.6-60.6,26.3-63.9-7.1C605.5,747.3,633.3,728.7,654.6,739 M272,788c-0.2,3.7-0.7,7.4-1.3,11
			c-1.5,9.8-6.8,47.4-10.8,76.9c-0.7,5.4-1.7,12.5-2.2,15.8s-1.3,9.4-1.8,13.7s-1.5,12.3-2.2,17.9c-2.4,18.8-6.2,50.1-7.9,64.9
			c-1.2,10.3-1.9,16.6-5.4,45.3c-1.6,13.6-3.5,30.1-5.4,47l-2.1,19.2c-0.4,3.5-1.2,11.6-1.8,17.9s-1.4,11.8-1.7,12.1
			c-0.8,0.8-27.6-3.9-40.1-7.1c-43.1-11-62.2-50.4-40.9-84.6c5.3-8.6,13.1-15.6,31.5-28.5s21.1-15.7,21.6-23.2
			c1-14-19.7-20.6-42.2-13.3c-103.8,33.2-98.9,174.6,7.3,206c15,4.4,31.7,7,53.3,8.2c10.4,0.6,16.6,1.6,32.1,5.1
			c14.8,3.4,40.1,4.8,164.2,9c32.8,1.1,220.7,1.1,248.7,0l43.7-1.7c34.4-1.3,87.1-4.8,101.9-6.7c21.9-2.8,23.8-7.4,19.2-47.5
			c-0.8-6.6-2-17.7-2.7-24.8s-2-18.4-2.8-25.2s-1.9-17.6-2.6-23.9c-2.6-23.9-5.7-50-7.9-67.9c-3.4-26.3-4.4-33.7-9.4-66.2
			c-1.5-10.1-3.2-20.9-3.6-23.9s-1.2-7.9-1.7-10.7s-2.9-17.8-5.4-33.3s-5.5-34.1-6.7-41.4s-2.8-16.7-3.5-20.9s-1.8-10.9-2.4-14.8
			c-0.9-5.8-1.4-7-2.5-6.4c-0.8,0.3-9,0.8-18.3,1.1c-19.4,0.5-18.8,0.3-19.5,6.2c-5.2,39.5-41.8,68.5-83.6,66.1
			c-37.1-2.1-68.3-29.5-73.5-64.6c-1.2-8.3,2.5-7.7-49.4-7.7s-48-0.6-49.4,7.8C471,879.2,344,881,328.4,797.3
			c-2-10.5,0.5-9.6-28.2-10.1c-13.8-0.2-28.2-1.5-28.2,0.9 M538.6,849.6c7.2,7.1,9.7,8,21,7.3c10.7-0.6,12,0,8.6,4.2
			c-5.4,6.5-17.8,6-30.1-1.3c-5.5-3.2-6.5-3.2-11.5,0c-12.1,7.7-26.8,8-31.1,0.5c-1.7-3-0.1-4.2,4.5-3.5c13.4,2.1,17.7,1,25.1-6.8
			C530.8,843.9,532.7,843.8,538.6,849.6"/>
		<path id="path1" class="st7" d="M397.3,699.6c-35.5,3.2-63.3,38.2-69.4,72.5c-0.9,4.9-15.6,8-28.5,7.9c-14.1-0.1-25.4,0-25.2,0.4
			s3.1-20.8,2.6-20.8c-0.9,0-4.7,25.1-4.8,28.1c0,0.9,0,1.8,0.2,2.7c0,0.5,0.3,0.9,0.6,1.2c0.9,0.5,13.4-4.6,27.2-4.6
			c6,0,26.6,1.6,28.2,10.1c15.5,83.7,142.6,81.9,156.3-2.2c1.4-8.4-2.5-7.8,49.4-7.8s48.2-0.6,49.4,7.7
			c5.2,35.1,36.4,62.5,73.5,64.6c41.8,2.3,78.4-26.6,83.6-66.1c0.8-6,1.7-2.5,20.1-2.5c18.7,0,20.2,1.6,17.8-10.5
			c-0.1-0.2-8-0.3-17.5-0.2c-20.3,0.3-19.3,0.7-20.8-8c-14.2-84.4-142.6-84.1-156.6,0.4c-0.5,3-1.4,6-1.9,6.6
			c-1.5,1.7-93.5,1.8-95,0.1c-0.5-0.6-1.6-4.5-2.4-8.7c0.1-43.4-44.4-65.7-85.9-62 M424.7,717.1c53.4,13.1,71.5,77.7,32.4,115.3
			c-40.1,38.6-108,19.9-121.2-33.2C323.5,749.5,372.4,704.3,424.7,717.1 M680.1,717.2c54.3,13.3,72.1,79.4,31.3,116.6
			c-46.2,42.1-121.3,11.1-121.3-50C590.2,738.3,634,705.8,680.1,717.2 M524.9,849.9c-7.4,7.8-11.7,8.9-25.1,6.8
			c-4.5-0.7-6.2,0.6-4.5,3.5c4.4,7.4,19.1,7.2,31.1-0.5c5-3.2,6-3.2,11.5,0c12.3,7.3,24.7,7.8,30.1,1.3c3.4-4.2,2.1-4.8-8.6-4.2
			c-11.3,0.7-13.8-0.2-21-7.3C532.6,843.7,530.8,843.7,524.9,849.9"/>
		<path class="st8" d="M274.1,779.4"/>
		<path class="st9" d="M523.6,875.3c-14,16-22,18.4-47.2,14c-8.5-1.5-11.6,1.2-8.4,7.2c8.2,15.3,35.8,14.8,58.5-1.1
			c9.4-6.6,11.3-6.6,21.6,0.1c23.2,15,46.5,16.1,56.5,2.6c6.4-8.6,3.9-9.9-16.1-8.7c-21.1,1.3-25.9-0.5-39.4-15
			C538,862.5,534.6,862.6,523.6,875.3"/>
	</g>
</g>
</svg>
