<svg id="Layer_1" data-name="Layer 1" xmlns="http://www.w3.org/2000/svg" xmlns:xlink="http://www.w3.org/1999/xlink" viewBox="0 0 43.54 47.92"><defs><style>.cls-1{fill:#d980b5;}.cls-2{fill:#cb61a1;}.cls-10,.cls-3{fill:#b74a84;}.cls-4{fill:#8d3761;}.cls-5,.cls-6{fill:#010101;isolation:isolate;}.cls-5{opacity:0.1;}.cls-6{opacity:0.2;}.cls-7{fill:url(#linear-gradient);}.cls-8{fill:#221f1f;}.cls-10,.cls-8,.cls-9{fill-rule:evenodd;}.cls-9{fill:#fff;}</style><linearGradient id="linear-gradient" x1="162.04" y1="1842.99" x2="177.15" y2="1816.82" gradientTransform="matrix(1, 0, 0, -1, -156.23, 1856.38)" gradientUnits="userSpaceOnUse"><stop offset="0" stop-color="#be5790"/><stop offset="0.5" stop-color="#b84c86"/><stop offset="1" stop-color="#a73f70"/></linearGradient></defs><title>clash-t-logo-windows-taskbar-48px-with-cat-ear-over-block-revised-all-rounded</title><polygon class="cls-1" points="33.78 5.01 33.38 5.01 33.45 4.96 33.78 5.01"/><polygon class="cls-1" points="25.56 20.57 29.02 20.57 27.34 21.13 25.56 20.57"/><path class="cls-1" d="M45.77,7v.66c0-.22,0-.47,0-.75A.25.25,0,0,1,45.77,7Z" transform="translate(-2.23 -0.04)"/><path class="cls-1" d="M35.68,5,43.2.29c1-.39,1.84-.21,2.14.78a30.69,30.69,0,0,1,.42,5.85c0,.28,0,.53,0,.75v8.12L38.21,18.3l-7,2.31H27.79l-7.53-2.36-7.9-2.46V7a31.45,31.45,0,0,1,.42-5.9c.3-1,1.1-1.3,2.14-.78l7.6,4.76h0l3.12-.45c.33,0,1.93-.18,3.55-.19s3.27.11,3.59.15L35.68,5" transform="translate(-2.23 -0.04)"/><polygon class="cls-1" points="33.78 5.01 33.38 5.01 33.45 4.96 33.78 5.01"/><path class="cls-2" d="M45.77,15.73H12.36V26.48L29.57,29.7l16.2-3.22Z" transform="translate(-2.23 -0.04)"/><path class="cls-3" d="M12.36,26.48V37.22l16.2,2.15,17.21-2.15V26.48Z" transform="translate(-2.23 -0.04)"/><path class="cls-4" d="M14.21,48h29.7a1.91,1.91,0,0,0,1.86-2h0V37.22H12.36V46A1.91,1.91,0,0,0,14.21,48Z" transform="translate(-2.23 -0.04)"/><path class="cls-5" d="M24.68,13.58H12.36V40.44H24.68a1.91,1.91,0,0,0,1.85-2V15.55A1.93,1.93,0,0,0,24.68,13.58Z" transform="translate(-2.23 -0.04)"/><path class="cls-6" d="M23.66,14.66H12.36V41.51h11.3a1.91,1.91,0,0,0,1.86-2V16.63A1.91,1.91,0,0,0,23.66,14.66Z" transform="translate(-2.23 -0.04)"/><path class="cls-6" d="M23.66,14.66H12.36V39.37h11.3a1.93,1.93,0,0,0,1.86-2V16.63A1.91,1.91,0,0,0,23.66,14.66Z" transform="translate(-2.23 -0.04)"/><path class="cls-6" d="M22.65,14.66H12.36V39.37H22.65a1.94,1.94,0,0,0,1.86-2V16.63A1.93,1.93,0,0,0,22.65,14.66Z" transform="translate(-2.23 -0.04)"/><path class="cls-7" d="M4.09,14.66H22.65a1.91,1.91,0,0,1,1.86,2V36.32a1.91,1.91,0,0,1-1.86,2H4.09a1.91,1.91,0,0,1-1.86-2V16.63A1.91,1.91,0,0,1,4.09,14.66Z" transform="translate(-2.23 -0.04)"/><path class="cls-8" d="M8.58,24.13" transform="translate(-2.23 -0.04)"/><path id="path0" class="cls-9" d="M10.42,18.87c-.07,0-.17.14-.22.29a8.35,8.35,0,0,0-.28,1.31c0,.12-.06.31-.08.43l-.15.8c0,.08,0,.19,0,.24s0,.1-.12.75c-.08.48-.12.69-.16,1,0,.11,0,.27,0,.36a3.88,3.88,0,0,0-.08.62s0,0,0,0h0s.22,0,.51,0a2.66,2.66,0,0,0,.49,0,.11.11,0,0,0,.08,0s0,0,0-.06v-.06a.75.75,0,0,1,0-.16,1.62,1.62,0,0,1,3.17.12.5.5,0,0,0,.05.18,15.7,15.7,0,0,0,1.94,0,.33.33,0,0,0,0-.14,1.62,1.62,0,0,1,3.21,0c0,.19,0,.18.42.17h.37v0s0-.1,0-.2,0-.25-.05-.34c0-.24-.08-.49-.1-.63l0-.22c0-.06-.07-.44-.13-.85a27.83,27.83,0,0,0-.59-3.06c-.1-.41-.16-.51-.33-.5a.85.85,0,0,0-.52.4c-.09.13-.82,1.43-1,1.84-.13.26-.15.27-.51.2a9.41,9.41,0,0,0-3.43,0c-.35.07-.29.11-.59-.37-1.08-1.77-1.41-2.15-1.79-2.06m1.34,4.92a.67.67,0,0,1,.38.66.66.66,0,0,1-1.24.25.67.67,0,0,1,.86-.91m5.27,0a.7.7,0,0,1,.34.84.67.67,0,0,1-1.3-.16.69.69,0,0,1,1-.68M9.19,24.85a1,1,0,0,1,0,.24c0,.21-.13,1-.22,1.67,0,.12,0,.27,0,.34s0,.21,0,.3,0,.27,0,.39c-.05.41-.12,1.09-.16,1.41s0,.36-.11,1c0,.3-.07.65-.11,1l0,.42c0,.07,0,.25,0,.39l0,.26a5.93,5.93,0,0,1-.82-.15,1.23,1.23,0,0,1-.84-1.84,2.2,2.2,0,0,1,.64-.62c.38-.28.43-.34.45-.51s-.41-.44-.87-.29A2.36,2.36,0,0,0,7,33.34a4.5,4.5,0,0,0,1.09.18,4.7,4.7,0,0,1,.66.11,23.09,23.09,0,0,0,3.36.2c.67,0,4.52,0,5.09,0l.9,0c.7,0,1.78-.1,2.09-.14s.48-.17.39-1c0-.14,0-.38-.06-.53s0-.4-.05-.55,0-.38-.06-.52c-.05-.52-.11-1.09-.16-1.48-.07-.57-.09-.73-.19-1.43,0-.22-.07-.46-.08-.52s0-.17,0-.24-.06-.38-.11-.72-.11-.74-.14-.9-.06-.36-.07-.45,0-.24-.05-.32,0-.15-.05-.14l-.37,0c-.4,0-.39,0-.4.14a1.62,1.62,0,0,1-3.22,0c0-.18,0-.16-1-.16s-1,0-1,.17a1.62,1.62,0,0,1-3.2,0c0-.22,0-.2-.58-.21-.28,0-.57,0-.57,0m5.46,1.34c.14.16.19.18.43.16s.24,0,.17.09-.36.13-.61,0-.14-.07-.24,0c-.25.17-.55.18-.64,0s0-.1.09-.08c.28,0,.37,0,.52-.15s.15-.13.28,0" transform="translate(-2.23 -0.04)"/><path id="path1" class="cls-9" d="M11.76,22.93a1.82,1.82,0,0,0-1.42,1.57c0,.11-.32.18-.59.17a4.53,4.53,0,0,0-.51,0s.06-.45,0-.45a4.42,4.42,0,0,0-.09.61s0,0,0,.06a0,0,0,0,0,0,0,2.67,2.67,0,0,1,.56-.1c.12,0,.54,0,.58.22a1.62,1.62,0,0,0,3.2-.05c0-.19-.05-.17,1-.17s1,0,1,.17a1.62,1.62,0,0,0,3.22,0c0-.13,0-.05.41-.05s.41,0,.36-.23H19.2c-.41,0-.39,0-.42-.18a1.62,1.62,0,0,0-3.21,0,.57.57,0,0,1,0,.14,18.12,18.12,0,0,1-1.95,0,.81.81,0,0,1,0-.19,1.48,1.48,0,0,0-1.76-1.35m.54.19a1.5,1.5,0,0,1,.66,2.5,1.46,1.46,0,0,1-2.48-.72,1.49,1.49,0,0,1,1.82-1.78m5.23,0a1.5,1.5,0,0,1,.64,2.53,1.48,1.48,0,1,1-.64-2.53m-3.18,2.88c-.15.17-.24.2-.52.15-.09,0-.12,0-.09.07s.39.16.64,0c.1-.07.12-.07.24,0s.5.17.61,0,.05-.1-.17-.09a.42.42,0,0,1-.43-.16c-.12-.13-.16-.12-.28,0" transform="translate(-2.23 -0.04)"/><path class="cls-10" d="M14.34,26.74c-.28.35-.45.4-1,.31-.18,0-.24,0-.17.16.17.33.73.32,1.2,0,.19-.14.23-.14.44,0,.47.33,1,.35,1.16.06s.08-.21-.33-.19a.74.74,0,0,1-.81-.32c-.23-.26-.3-.26-.52,0" transform="translate(-2.23 -0.04)"/></svg>