<svg id="Layer_1" data-name="Layer 1" xmlns="http://www.w3.org/2000/svg" xmlns:xlink="http://www.w3.org/1999/xlink" viewBox="0 0 1881.25 1750"><defs><style>.cls-1{fill:#e67ec7;}.cls-2{fill:#cb61a1;}.cls-10,.cls-3{fill:#b64983;}.cls-4{fill:#8c3660;}.cls-5{opacity:0.1;}.cls-5,.cls-6{isolation:isolate;}.cls-6{opacity:0.2;}.cls-7{fill:url(#linear-gradient);}.cls-8{fill:#221f1f;}.cls-10,.cls-8,.cls-9{fill-rule:evenodd;}.cls-9{fill:#fff;}</style><linearGradient id="linear-gradient" x1="167.21" y1="2326.91" x2="795.29" y2="1239.09" gradientTransform="matrix(1, 0, 0, -1, 0, 2658)" gradientUnits="userSpaceOnUse"><stop offset="0" stop-color="#bd568f"/><stop offset="0.5" stop-color="#b74b85"/><stop offset="1" stop-color="#a63e6f"/></linearGradient></defs><title>clash-t-logo-original-with-fluent-ui-bg-smaller</title><g id="Livello_1" data-name="Livello 1"><path class="cls-1" d="M1801.06,0H517.69A80.19,80.19,0,0,0,437.5,80.19h0V437.5l743.75,218.75,700-218.75V80.19A80.19,80.19,0,0,0,1801.06,0Z" transform="translate(0 0)"/><path class="cls-2" d="M1881.25,437.5H437.5V875l743.75,131.25,700-131.25Z" transform="translate(0 0)"/><path class="cls-3" d="M437.5,875v437.5l700,87.5,743.75-87.5V875Z" transform="translate(0 0)"/><path class="cls-4" d="M517.69,1750H1801.06a80.19,80.19,0,0,0,80.19-80.19h0V1312.5H437.5v357.31A80.19,80.19,0,0,0,517.69,1750Z" transform="translate(0 0)"/><path class="cls-5" d="M969.81,350H437.5V1443.75H969.81a80.44,80.44,0,0,0,80.19-80.19V430.19A80.44,80.44,0,0,0,969.81,350Z" transform="translate(0 0)"/><path class="cls-6" d="M926.06,393.75H437.5V1487.5H926.06a80.44,80.44,0,0,0,80.19-80.19V473.94A80.44,80.44,0,0,0,926.06,393.75Z" transform="translate(0 0)"/><path class="cls-6" d="M926.06,393.75H437.5V1400H926.06a80.44,80.44,0,0,0,80.19-80.19V473.94A80.44,80.44,0,0,0,926.06,393.75Z" transform="translate(0 0)"/><path class="cls-6" d="M882.31,393.75H437.5V1400H882.31a80.44,80.44,0,0,0,80.19-80.19V473.94A80.44,80.44,0,0,0,882.31,393.75Z" transform="translate(0 0)"/><path class="cls-7" d="M80.19,393.75H882.31a80.19,80.19,0,0,1,80.19,80.19v802.12a80.19,80.19,0,0,1-80.19,80.19H80.19A80.19,80.19,0,0,1,0,1276.06V473.94A80.19,80.19,0,0,1,80.19,393.75Z" transform="translate(0 0)"/><path class="cls-8" d="M274.13,779.37" transform="translate(0 0)"/><path id="path0" class="cls-9" d="M353.69,565.09c-2.91.61-7,5.79-9.53,12.06-2.71,6.73-4.72,15.67-12,53.19-.89,4.77-2.53,12.77-3.54,17.75-1.73,8.38-3.45,17.17-6.36,32.49-.63,3.32-1.5,7.75-1.94,9.83-.88,4.1-.8,3.77-5.42,30.22-3.47,19.84-4.9,28.32-6.8,40.42-.68,4.37-1.77,11-2.35,14.74-2.25,13.78-3.6,24.57-3.17,25.25a.59.59,0,0,1-.12.83.52.52,0,0,1-.23.1c-.45.15,9.55.16,22.2,0,11.73-.11,17.86-.08,21.18-.69a5.05,5.05,0,0,0,3.27-1.54,5.84,5.84,0,0,0,.89-2.48c.13-.69.24-1.48.39-2.39.39-2.2.85-4.32,1.39-6.38,17.86-67.76,123-66.89,137,4.73.72,3.69,1.67,7.13,2.11,7.66,1.26,1.47,82.75,1.36,84.07-.12.5-.58,1.27-3.22,1.71-5.86,12.39-74.78,126-75,138.57-.32,1.3,7.66.47,7.33,18.4,7.08,8.49-.13,15.55-.06,15.7.15s.13-.09,0-.67-.8-4.22-1.44-8.12S746,782.8,745.31,779c-1.65-9.74-3.32-19.72-4.29-25.51-.45-2.65-1.17-6.78-1.61-9.07s-3.11-17.75-5.95-34.37c-13.26-77.52-13.77-80.1-25.32-125-4.3-16.71-6.94-20.44-14.46-20.36-5.66,0-15.26,7.16-22.41,16.61-3.76,5-35.15,58-44.25,74.71-5.84,10.77-6.52,11-22.36,8.4-52.85-8.73-100.7-8.72-147.92,0-15,2.79-12.77,4.12-25.39-15.33-46.66-71.89-61.07-87.45-77.69-83.95m58.06,200.66a26.88,26.88,0,0,1,16.34,26.9c-2,27.1-41,34.27-53.53,9.85-11.72-22.86,13-47.3,37.17-36.75m227.63-.43c13,6.28,19.88,21.84,15,34-11.07,28-53.66,23.26-56.54-6.26-2-20.43,22.6-36.88,41.46-27.74M300.73,808.67a96.52,96.52,0,0,1-1.15,9.74c-1.35,8.63-6,42-9.51,68.09-.64,4.78-1.53,11.07-2,14s-1.17,8.34-1.62,12.09-1.33,10.87-2,15.87c-2.12,16.67-5.49,44.31-7,57.42-1.06,9.16-1.71,14.7-4.76,40.05-1.45,12.06-3.11,26.6-4.76,41.59l-1.88,17c-.35,3.11-1.08,10.26-1.63,15.87s-1.21,10.43-1.47,10.71c-.66.74-24.42-3.47-35.46-6.28-38.12-9.73-55-44.58-36.23-74.87,4.72-7.64,11.59-13.84,27.89-25.18s18.64-13.85,19.14-20.55c.88-12.39-17.4-18.2-37.34-11.82-91.9,29.41-87.51,154.48,6.42,182.31,13.27,3.92,28,6.19,47.15,7.28,9.16.51,14.66,1.39,28.4,4.52,13.07,3,35.51,4.2,145.34,8,29,1,195.3,1,220.05,0l38.67-1.53c30.42-1.17,77.1-4.26,90.17-6,19.41-2.51,21-6.57,17-42-.67-5.82-1.77-15.68-2.43-21.91s-1.77-16.27-2.43-22.29-1.72-15.55-2.33-21.16c-2.29-21.17-5-44.25-7-60.07-3-23.31-3.91-29.79-8.3-58.55-1.36-8.94-2.8-18.46-3.2-21.16s-1.08-7-1.52-9.45-2.59-15.76-4.76-29.47-4.85-30.2-5.93-36.64-2.47-14.77-3.09-18.52-1.59-9.61-2.13-13c-.83-5.17-1.21-6.19-2.2-5.67-.66.31-8,.74-16.17,1-17.18.46-16.62.27-17.3,5.49-4.61,35-37,60.59-74,58.52-32.84-1.83-60.44-26.09-65-57.16-1.09-7.35,2.23-6.84-43.71-6.84s-42.48-.54-43.69,6.93c-12.16,74.45-124.55,76.06-138.32,2-1.73-9.24.45-8.47-25-8.91-12.21-.2-25-1.29-25,.78m235.9,54.45c6.36,6.25,8.62,7.07,18.58,6.46,9.43-.55,10.62,0,7.61,3.72-4.75,5.79-15.71,5.31-26.64-1.13-4.86-2.87-5.78-2.87-10.2,0-10.68,6.83-23.7,7.08-27.56.46-1.53-2.66-.09-3.74,3.94-3.12,11.89,1.88,15.67.89,22.24-6,5.19-5.44,6.8-5.48,12-.33" transform="translate(0 0)"/><path id="path1" class="cls-9" d="M411.65,730.48c-31.46,2.87-56,33.77-61.39,64.19-.78,4.37-13.82,7.13-25.21,7-12.45-.12-22.48,0-22.28.36s2.74-18.38,2.34-18.38c-.84,0-4.18,22.2-4.22,24.88a11.43,11.43,0,0,0,.18,2.34,1.57,1.57,0,0,0,.58,1.08c.81.41,11.89-4.08,24-4.08,5.31,0,23.55,1.41,24.94,8.92,13.7,74.07,126.16,72.45,138.32-2,1.21-7.47-2.19-6.93,43.68-6.93s42.63-.51,43.72,6.85c4.58,31.06,32.19,55.32,65,57.16,37,2.06,69.38-23.53,74-58.54.7-5.31,1.5-2.17,17.76-2.17,16.51,0,17.9,1.41,15.79-9.34-.06-.2-7.08-.27-15.53-.15-17.93.25-17.11.58-18.4-7.08-12.56-74.73-126.18-74.46-138.58.33-.44,2.65-1.21,5.31-1.71,5.86-1.28,1.47-82.77,1.58-84.07.11-.44-.52-1.39-4-2.1-7.65.07-38.39-39.32-58.18-76-54.87M435.89,746c47.24,11.59,63.29,68.78,28.64,102-35.48,34.15-95.54,17.65-107.26-29.34-11-44.06,32.3-84.07,78.65-72.66m226,0c48.09,11.81,63.79,70.28,27.71,103.15-40.87,37.24-107.39,9.83-107.33-44.24,0-40.23,38.81-68.93,79.64-58.92M524.55,863.44c-6.57,6.89-10.35,7.92-22.25,6-4-.63-5.47.5-3.94,3.11,3.86,6.59,16.89,6.38,27.56-.46,4.43-2.83,5.31-2.83,10.21,0,10.93,6.46,21.89,6.92,26.63,1.14,3-3.69,1.83-4.28-7.6-3.73-9.95.58-12.21-.2-18.58-6.46-5.24-5.15-6.85-5.11-12,.33" transform="translate(0 0)"/><path class="cls-10" d="M523.39,885.9c-12.34,14.16-19.47,16.29-41.78,12.39-7.56-1.31-10.26,1-7.39,6.4,7.25,13.57,31.72,13.13,51.76-.94,8.3-5.83,10-5.82,19.15.07,20.53,13.28,41.1,14.25,50,2.33,5.69-7.58,3.43-8.79-14.27-7.67-18.68,1.19-22.92-.42-34.88-13.27-9.84-10.62-12.86-10.51-22.6.67" transform="translate(0 0)"/></g></svg>