<svg id="Layer_1" data-name="Layer 1" xmlns="http://www.w3.org/2000/svg" xmlns:xlink="http://www.w3.org/1999/xlink" viewBox="0 0 1532.98 1730.54"><defs><style>.cls-1{fill:#e67ec7;}.cls-2{fill:#cb61a1;}.cls-10,.cls-3{fill:#b64983;}.cls-4{fill:#8c3660;}.cls-5{opacity:0.1;}.cls-5,.cls-6{isolation:isolate;}.cls-6{opacity:0.2;}.cls-7{fill:url(#linear-gradient);}.cls-8{fill:#221f1f;}.cls-10,.cls-8,.cls-9{fill-rule:evenodd;}.cls-9{fill:#fff;}</style><linearGradient id="linear-gradient" x1="278.21" y1="-1317.98" x2="818.56" y2="-382.11" gradientTransform="translate(0 1816.11)" gradientUnits="userSpaceOnUse"><stop offset="0" stop-color="#bd568f"/><stop offset="0.5" stop-color="#b74b85"/><stop offset="1" stop-color="#a63e6f"/></linearGradient></defs><title>clash-t-logo-original-with-fluent-ui-bg-smaller-with-cat-ear-over-block</title><g id="Livello_1" data-name="Livello 1"><path class="cls-1" d="M1623.86,191.86H578.08c-36.09,0-65.35,31.77-65.35,71h0V579l606.06,193.55L1689.2,579V262.82C1689.2,223.63,1660,191.86,1623.86,191.86Z" transform="translate(-156.23 -9.73)"/><path class="cls-2" d="M1689.2,579H512.73v387.1l606.06,116.13L1689.2,966.07Z" transform="translate(-156.23 -9.73)"/><path class="cls-3" d="M512.73,966.07v387.1l570.41,77.42,606.06-77.42V966.07Z" transform="translate(-156.23 -9.73)"/><path class="cls-4" d="M578.08,1740.27H1623.86c36.09,0,65.34-31.77,65.34-71h0V1353.17H512.73v316.15C512.73,1708.5,542,1740.27,578.08,1740.27Z" transform="translate(-156.23 -9.73)"/><path class="cls-5" d="M946.5,501.55H512.73V1469.3H946.5c36-.12,65.23-31.82,65.34-71V572.5C1011.73,533.36,982.54,501.67,946.5,501.55Z" transform="translate(-156.23 -9.73)"/><path class="cls-6" d="M910.85,540.26H512.73V1508H910.85c36-.12,65.23-31.82,65.34-71V611.21C976.08,572.07,946.89,540.38,910.85,540.26Z" transform="translate(-156.23 -9.73)"/><path class="cls-6" d="M910.85,540.26H512.73v890.33H910.85c36-.12,65.23-31.82,65.34-71V611.21C976.08,572.07,946.89,540.38,910.85,540.26Z" transform="translate(-156.23 -9.73)"/><path class="cls-6" d="M875.2,540.26H512.73v890.33H875.2c36-.12,65.23-31.82,65.34-71V611.21C940.43,572.07,911.24,540.38,875.2,540.26Z" transform="translate(-156.23 -9.73)"/><path class="cls-7" d="M221.57,540.26H875.2c36.09,0,65.34,31.76,65.34,71v709.71c0,39.19-29.25,71-65.34,71H221.57c-36.09,0-65.34-31.77-65.34-71V611.21C156.23,572,185.48,540.26,221.57,540.26Z" transform="translate(-156.23 -9.73)"/><path class="cls-8" d="M379.61,881.45" transform="translate(-156.23 -9.73)"/><path id="path0" class="cls-9" d="M444.44,691.86c-2.37.54-5.7,5.12-7.77,10.67-2.2,6-3.84,13.86-9.77,47.06-.73,4.22-2.07,11.3-2.89,15.71-1.41,7.41-2.81,15.19-5.18,28.74-.52,2.94-1.22,6.86-1.58,8.7-.72,3.63-.65,3.34-4.42,26.74-2.83,17.55-4,25.06-5.54,35.76-.55,3.87-1.44,9.74-1.92,13-1.83,12.2-2.93,21.74-2.58,22.35a.55.55,0,0,1-.09.73h0a.34.34,0,0,1-.18.09c-.37.13,7.78.14,18.09,0,9.55-.1,14.55-.07,17.26-.61a4,4,0,0,0,2.66-1.36,5.67,5.67,0,0,0,.73-2.2c.1-.61.19-1.31.31-2.11q.48-2.92,1.14-5.65c14.55-59.95,100.22-59.18,111.63,4.19.59,3.26,1.36,6.31,1.72,6.77,1,1.31,67.43,1.21,68.51-.1a17.45,17.45,0,0,0,1.39-5.19c10.1-66.16,102.68-66.36,112.92-.28,1.06,6.78.38,6.49,15,6.26,6.92-.11,12.67,0,12.8.14s.1-.08,0-.6-.66-3.73-1.18-7.18-1.36-9-1.92-12.4c-1.35-8.62-2.71-17.45-3.5-22.58-.36-2.34-.95-6-1.31-8s-2.53-15.71-4.85-30.41c-10.8-68.59-11.22-70.87-20.63-110.6-3.5-14.79-5.65-18.09-11.78-18-4.61,0-12.44,6.34-18.26,14.7-3.07,4.42-28.65,51.32-36.06,66.1-4.76,9.53-5.31,9.74-18.22,7.44-43.07-7.73-82.06-7.72-120.54,0-12.22,2.46-10.4,3.64-20.69-13.57-38-63.61-49.76-77.37-63.3-74.28m47.31,177.55c8.7,4,14.06,13.58,13.31,23.8-1.63,24-33.41,30.32-43.62,8.71-9.55-20.22,10.59-41.85,30.29-32.51m185.49-.38c10.59,5.55,16.2,19.32,12.22,30.08-9,24.77-43.72,20.58-46.07-5.54-1.63-18.08,18.42-32.63,33.78-24.54M401.28,907.38c-.17,2.89-.49,5.76-.93,8.62-1.1,7.63-4.89,37.16-7.75,60.24-.52,4.23-1.25,9.8-1.63,12.39s-1,7.38-1.32,10.7-1.09,9.61-1.63,14c-1.73,14.75-4.48,39.2-5.71,50.8-.86,8.11-1.39,13-3.88,35.44-1.18,10.67-2.53,23.54-3.87,36.8l-1.54,15c-.28,2.75-.88,9.08-1.32,14a74.17,74.17,0,0,1-1.2,9.48c-.54.65-19.9-3.07-28.9-5.56-31.06-8.61-44.82-39.44-29.52-66.24,3.85-6.76,9.44-12.25,22.73-22.28s15.19-12.26,15.59-18.19c.72-11-14.18-16.1-30.42-10.45-74.89,26-71.31,136.68,5.23,161.3C336,1217,348,1219,363.63,1220c7.46.45,11.94,1.23,23.14,4,10.65,2.66,28.94,3.72,118.43,7.08,23.64.89,159.15.89,179.32,0l31.51-1.35c24.79-1,62.82-3.77,73.47-5.31,15.82-2.22,17.12-5.81,13.86-37.16-.55-5.15-1.44-13.87-2-19.39s-1.44-14.39-2-19.72-1.4-13.76-1.9-18.72c-1.87-18.73-4.08-39.15-5.71-53.15-2.44-20.63-3.18-26.36-6.76-51.81-1.11-7.91-2.28-16.33-2.61-18.72s-.88-6.19-1.23-8.36-2.12-14-3.88-26.08-4-26.72-4.84-32.42-2-13.06-2.51-16.38-1.3-8.5-1.74-11.5c-.68-4.58-1-5.48-1.79-5-.54.27-6.52.65-13.18.88-14,.41-13.54.24-14.1,4.86-3.75,31-30.15,53.61-60.3,51.78-26.76-1.62-49.25-23.08-53-50.58-.89-6.5,1.81-6-35.62-6s-34.62-.48-35.6,6.13c-9.91,65.88-101.5,67.3-112.72,1.77-1.41-8.17.37-7.49-20.37-7.88-9.95-.18-20.37-1.14-20.37.69m192.23,48.18c5.18,5.53,7,6.25,15.14,5.71,7.68-.48,8.65,0,6.2,3.3-3.87,5.12-12.8,4.69-21.71-1-4-2.54-4.71-2.54-8.31,0-8.7,6-19.31,6.26-22.46.4-1.24-2.35-.07-3.31,3.21-2.76,9.69,1.67,12.77.79,18.13-5.31,4.22-4.81,5.54-4.85,9.77-.29" transform="translate(-156.23 -9.73)"/><path id="path1" class="cls-9" d="M491.67,838.19c-25.64,2.54-45.63,29.88-50,56.8-.63,3.87-11.26,6.31-20.54,6.19-10.14-.1-18.32,0-18.15.32s2.23-16.26,1.9-16.26c-.68,0-3.4,19.64-3.44,22a11.88,11.88,0,0,0,.15,2.07,1.43,1.43,0,0,0,.47,1c.66.36,9.69-3.61,19.56-3.61,4.33,0,19.19,1.25,20.32,7.89,11.17,65.54,102.81,64.11,112.72-1.77,1-6.61-1.79-6.13,35.59-6.13s34.74-.45,35.63,6.06c3.73,27.48,26.23,48.95,53,50.58,30.15,1.82,56.54-20.82,60.3-51.8.57-4.7,1.23-1.92,14.48-1.92,13.45,0,14.58,1.25,12.86-8.26-.05-.18-5.77-.24-12.65-.14-14.61.22-13.95.52-15-6.26C728.57,828.8,636,829,625.88,895.21a17.47,17.47,0,0,1-1.39,5.19c-1,1.3-67.45,1.39-68.51.09-.36-.46-1.13-3.54-1.71-6.77.05-34-32-51.47-61.93-48.54m19.08,6.75c38.5,10.25,51.58,60.85,23.34,90.25-28.91,30.21-77.85,15.61-87.4-26-9-39,26.32-74.39,64.09-64.29m184.16,0c39.18,10.45,52,62.18,22.58,91.26-33.31,32.95-87.51,8.7-87.46-39.14,0-35.6,31.62-61,64.89-52.13m-112,103.92c-5.36,6.09-8.44,7-18.13,5.31-3.26-.56-4.46.44-3.21,2.75,3.14,5.83,13.76,5.64,22.45-.41,3.61-2.5,4.33-2.5,8.32,0,8.91,5.72,17.84,6.12,21.7,1,2.45-3.26,1.5-3.79-6.19-3.3-8.11.51-10-.18-15.14-5.72-4.27-4.55-5.58-4.52-9.78.3" transform="translate(-156.23 -9.73)"/><path class="cls-10" d="M582.72,975.71c-10.05,12.53-15.86,14.41-34,11-6.16-1.16-8.36.89-6,5.67,5.9,12,25.84,11.61,42.17-.84,6.77-5.15,8.15-5.15,15.61.07,16.73,11.75,33.49,12.6,40.74,2.06,4.64-6.71,2.8-7.78-11.63-6.79-15.22,1-18.67-.37-28.42-11.74-8-9.4-10.48-9.3-18.42.59" transform="translate(-156.23 -9.73)"/></g><path class="cls-1" d="M1297.13,305.47,1598.86,20.41c24.85-22.53,64.83-7.62,75.15,27.93,18.2,62.73,15,270.78,15,270.78" transform="translate(-156.23 -9.73)"/><path class="cls-1" d="M904.81,305.47,603.08,20.41c-24.86-22.53-64.83-7.62-75.15,27.93-18.2,62.73-15,270.78-15,270.78" transform="translate(-156.23 -9.73)"/></svg>