<?xml version="1.0" standalone="no"?>
<!DOCTYPE svg PUBLIC "-//W3C//DTD SVG 20010904//EN"
 "http://www.w3.org/TR/2001/REC-SVG-20010904/DTD/svg10.dtd">
<svg version="1.0" xmlns="http://www.w3.org/2000/svg"
 width="512.000000pt" height="512.000000pt" viewBox="0 0 512.000000 512.000000"
 preserveAspectRatio="xMidYMid meet">
<metadata>
Created by potrace 1.14, written by Peter Selinger 2001-2017
</metadata>
<g transform="translate(0.000000,512.000000) scale(0.100000,-0.100000)"
fill="#000000" stroke="none">
<path d="M1754 4280 c-21 -8 -54 -74 -54 -108 0 -9 -11 -67 -25 -127 -78 -347
-244 -1517 -330 -2325 -14 -135 -31 -297 -38 -360 l-12 -115 -34 -3 c-97 -10
-257 45 -318 109 -80 85 -114 235 -72 326 11 24 24 43 29 43 6 0 10 6 10 13 0
19 35 49 45 40 4 -5 6 -3 3 2 -3 6 0 16 8 23 8 7 14 10 14 5 0 -4 7 2 15 13 8
10 15 16 15 12 0 -4 11 4 25 18 14 14 29 23 34 20 5 -3 12 1 15 10 3 8 11 12
17 8 8 -4 9 -3 5 5 -4 6 -1 14 7 17 9 3 21 19 27 35 16 37 -2 60 -59 77 -83
25 -217 -27 -324 -127 -109 -102 -153 -220 -144 -381 3 -47 8 -92 11 -100 3
-8 8 -28 10 -44 3 -15 14 -46 25 -67 12 -21 19 -39 16 -39 -5 0 18 -30 42 -55
7 -8 13 -16 13 -19 0 -9 71 -76 80 -76 5 0 10 -3 12 -7 6 -15 67 -53 83 -53 9
0 13 -4 10 -10 -4 -6 7 -10 24 -10 17 0 31 -4 31 -10 0 -5 11 -10 24 -10 13 0
27 -6 29 -12 4 -10 6 -10 6 0 1 6 6 12 12 12 6 0 8 -7 5 -16 -5 -14 -4 -15 9
-4 9 7 15 8 15 2 0 -5 9 -8 20 -5 13 3 20 0 20 -8 0 -11 2 -11 10 1 8 12 10
12 10 1 0 -10 3 -11 14 -2 11 10 17 8 25 -6 6 -10 11 -13 11 -6 0 12 24 12 36
0 4 -4 13 -2 21 4 10 9 13 8 13 -1 0 -9 4 -10 13 -2 9 8 20 8 38 -1 13 -7 37
-18 53 -25 28 -12 29 -12 15 5 -13 17 -13 17 11 3 14 -8 39 -15 55 -15 17 0
33 -4 37 -10 5 -6 8 -6 8 2 0 12 45 8 65 -6 9 -6 30 -7 38 -1 10 8 37 6 37 -3
0 -7 5 -5 10 3 5 8 10 11 10 5 0 -5 11 -11 25 -11 16 -1 23 2 19 10 -3 6 2 2
10 -8 9 -11 16 -15 16 -9 0 11 81 10 100 -2 5 -3 10 0 10 7 0 9 3 9 10 -2 9
-13 10 -13 10 0 0 13 1 13 10 0 8 -12 11 -13 19 -1 5 7 11 9 14 4 3 -5 35 -8
71 -8 36 1 63 -2 61 -5 -5 -9 40 -4 54 5 6 3 11 1 11 -5 0 -6 5 -8 13 -3 20
12 37 12 37 0 0 -7 5 -5 10 3 8 12 10 12 10 1 0 -11 3 -11 17 0 14 12 15 12 9
1 -7 -11 -4 -12 13 -3 12 7 21 8 21 2 0 -11 19 -9 39 3 7 5 16 5 20 0 8 -12
104 -11 113 1 5 6 8 5 8 -3 0 -7 5 -10 10 -7 6 3 10 0 11 -7 0 -7 4 -4 9 7 5
11 9 16 9 10 1 -6 32 -10 71 -11 38 0 67 3 64 7 -3 5 2 6 10 3 9 -3 13 -11 9
-18 -4 -8 -2 -8 7 1 7 6 19 9 28 6 11 -5 13 -3 7 8 -8 12 -6 12 8 0 9 -7 17
-10 17 -6 0 4 8 1 17 -6 13 -11 15 -11 9 -1 -6 10 -3 13 10 11 11 -2 25 0 32
4 6 5 12 4 12 -1 0 -10 121 -9 140 3 8 5 11 4 7 -2 -4 -5 6 -10 23 -10 18 0
27 4 23 11 -4 6 0 5 9 -2 11 -9 18 -10 23 -2 3 6 12 7 18 3 16 -10 48 -10 70
0 9 4 17 4 17 -1 0 -5 7 -9 15 -9 8 0 15 3 15 7 0 3 9 6 20 6 11 0 20 -3 20
-7 0 -9 21 -6 38 4 7 5 12 3 12 -4 0 -8 4 -8 15 1 12 10 15 10 15 -1 0 -11 2
-11 10 1 5 8 10 10 10 4 0 -6 7 -11 15 -11 8 0 12 4 9 8 -7 12 50 6 58 -6 5
-7 8 -7 8 0 0 6 16 11 35 12 25 1 33 -2 28 -10 -4 -7 0 -6 10 2 14 11 20 11
34 0 14 -12 16 -12 9 0 -6 9 -5 12 5 9 8 -3 23 -1 33 5 16 8 18 6 12 -9 -5
-17 -5 -18 7 -2 9 11 18 14 27 8 8 -5 19 -6 24 -2 6 3 23 5 39 4 21 -2 26 1
21 10 -4 7 2 5 13 -5 16 -14 23 -15 29 -6 5 8 3 10 -6 4 -8 -5 -11 -4 -6 3 8
13 36 5 36 -12 0 -7 4 -6 9 2 4 8 11 13 15 13 3 -1 9 0 14 0 27 4 39 4 55 -4
10 -5 17 -4 17 3 0 12 22 9 32 -5 5 -6 8 -6 8 1 0 7 7 15 16 18 8 3 13 2 10
-3 -3 -5 5 -8 19 -7 14 0 25 5 25 10 0 5 8 2 17 -5 11 -10 14 -10 9 -1 -4 7
-1 12 9 12 9 0 14 -4 11 -9 -4 -5 3 -7 14 -4 11 3 17 9 14 14 -7 13 19 7 28
-6 5 -6 8 -4 8 5 0 13 1 13 10 0 6 -9 10 -11 10 -3 0 7 7 10 15 7 8 -4 15 -1
15 5 0 6 6 8 13 5 7 -2 23 5 35 16 22 21 22 26 17 158 -3 75 -8 151 -10 167
-2 17 -7 59 -10 95 -17 173 -115 935 -140 1085 -3 17 -12 77 -20 135 -97 662
-262 1589 -295 1651 -15 28 -53 33 -95 13 -65 -30 -182 -207 -298 -447 l-52
-109 -45 7 c-223 31 -284 37 -445 37 -160 0 -282 -11 -430 -38 -29 -5 -32 -3
-80 83 -121 215 -278 424 -344 457 -39 20 -73 25 -97 16z"/>
</g>
</svg>
